<svg xmlns="http://www.w3.org/2000/svg" width="96" height="96" viewBox="0 0 96 96">
  <defs>
    <linearGradient id="g" x1="18" y1="12" x2="78" y2="84" gradientUnits="userSpaceOnUse">
      <stop stop-color="#44d7ff"/>
      <stop offset="1" stop-color="#28c586"/>
    </linearGradient>
  </defs>
  <circle cx="48" cy="48" r="39" fill="url(#g)"/>
  <circle cx="48" cy="48" r="39" fill="none" stroke="#fff" stroke-opacity=".34" stroke-width="4"/>
  <path d="M24 51a24 24 0 0 1 48 0" fill="none" stroke="#fff" stroke-width="8" stroke-linecap="round"/>
  <path d="M22 49h10a5 5 0 0 1 5 5v10a5 5 0 0 1-5 5h-5a5 5 0 0 1-5-5V49ZM74 49H64a5 5 0 0 0-5 5v10a5 5 0 0 0 5 5h5a5 5 0 0 0 5-5V49Z" fill="#fff" fill-opacity=".96"/>
  <path d="M59 70c-3 4-7 6-13 6h-6" stroke="#fff" stroke-width="6" stroke-linecap="round"/>
  <circle cx="39" cy="45" r="3" fill="#fff"/>
  <circle cx="48" cy="43" r="3" fill="#fff"/>
  <circle cx="57" cy="45" r="3" fill="#fff"/>
</svg>
